<?xml version="1.0" standalone="no"?><!DOCTYPE svg PUBLIC "-//W3C//DTD SVG 1.1//EN" "http://www.w3.org/Graphics/SVG/1.1/DTD/svg11.dtd"><svg t="1717300305223" class="icon" viewBox="0 0 1024 1024" version="1.1" xmlns="http://www.w3.org/2000/svg" p-id="2397" xmlns:xlink="http://www.w3.org/1999/xlink" width="200" height="200"><path d="M768 268.8L512 42.666667 256 268.8c-179.2 157.866667-170.666667 439.466667 17.066667 588.8 140.8 110.933333 337.066667 110.933333 473.6 0 192-145.066667 200.533333-426.666667 21.333333-588.8z m-72.533333 524.8c-106.666667 85.333333-260.266667 85.333333-366.933334 0-145.066667-115.2-153.6-332.8-12.8-456.533333L512 157.866667l200.533333 179.2c136.533333 119.466667 128 341.333333-17.066666 456.533333z" fill="#09121F" p-id="2398"></path><path d="M512 341.333333v426.666667c119.466667 0 213.333333-93.866667 213.333333-213.333333s-93.866667-213.333333-213.333333-213.333334z" fill="#09121F" p-id="2399"></path></svg>